<svg xmlns="http://www.w3.org/2000/svg" viewBox="0 0 24 24"><g><path d="M12 15a.5.5 0 0 1-.5-.5V11a1.001 1.001 0 0 0-2 0v3.5a.5.5 0 0 1-1 0V11c0-1.103.897-2 2-2s2 .897 2 2v3.5a.5.5 0 0 1-.5.5z" fill="#0ba348"></path><path d="M12 13H9a.5.5 0 0 1 0-1h3a.5.5 0 0 1 0 1zM15 15a.5.5 0 0 1-.5-.5v-5a.5.5 0 0 1 1 0v5a.5.5 0 0 1-.5.5z" fill="#0ba348"></path><path d="M16.5 19h-9A2.503 2.503 0 0 1 5 16.5v-9C5 6.122 6.121 5 7.5 5h9C17.879 5 19 6.122 19 7.5v9c0 1.378-1.121 2.5-2.5 2.5zm-9-13C6.673 6 6 6.673 6 7.5v9c0 .827.673 1.5 1.5 1.5h9c.827 0 1.5-.673 1.5-1.5v-9c0-.827-.673-1.5-1.5-1.5z" fill="#ffffff"></path><path d="M20.5 10h-2a.5.5 0 0 1 0-1h2a.5.5 0 0 0 .5-.5v-4a.5.5 0 0 1 1 0v4c0 .827-.673 1.5-1.5 1.5z" fill="#ffffff"></path><path d="M21.5 5C20.121 5 19 3.878 19 2.5S20.121 0 21.5 0 24 1.122 24 2.5 22.879 5 21.5 5zm0-4c-.827 0-1.5.673-1.5 1.5S20.673 4 21.5 4 23 3.327 23 2.5 22.327 1 21.5 1zM21.5 20a.5.5 0 0 1-.5-.5v-4a.5.5 0 0 0-.5-.5h-2a.5.5 0 0 1 0-1h2c.827 0 1.5.673 1.5 1.5v4a.5.5 0 0 1-.5.5z" fill="#ffffff"></path><path d="M21.5 24c-1.379 0-2.5-1.122-2.5-2.5s1.121-2.5 2.5-2.5 2.5 1.122 2.5 2.5-1.121 2.5-2.5 2.5zm0-4c-.827 0-1.5.673-1.5 1.5s.673 1.5 1.5 1.5 1.5-.673 1.5-1.5-.673-1.5-1.5-1.5zM5.5 10h-2C2.673 10 2 9.327 2 8.5v-4a.5.5 0 0 1 1 0v4a.5.5 0 0 0 .5.5h2a.5.5 0 0 1 0 1z" fill="#ffffff"></path><path d="M2.5 5C1.121 5 0 3.878 0 2.5S1.121 0 2.5 0 5 1.122 5 2.5 3.879 5 2.5 5zm0-4C1.673 1 1 1.673 1 2.5S1.673 4 2.5 4 4 3.327 4 2.5 3.327 1 2.5 1zM2.5 20a.5.5 0 0 1-.5-.5v-4c0-.827.673-1.5 1.5-1.5h2a.5.5 0 0 1 0 1h-2a.5.5 0 0 0-.5.5v4a.5.5 0 0 1-.5.5z" fill="#ffffff"></path><path d="M2.5 24C1.121 24 0 22.878 0 21.5S1.121 19 2.5 19 5 20.122 5 21.5 3.879 24 2.5 24zm0-4c-.827 0-1.5.673-1.5 1.5S1.673 23 2.5 23 4 22.327 4 21.5 3.327 20 2.5 20z" fill="#ffffff"></path></g></svg>