<svg xmlns="http://www.w3.org/2000/svg" viewBox="0 0 682.667 682.667"><g><defs><clipPath id="a" clipPathUnits="userSpaceOnUse"><path d="M0 512h512V0H0Z" fill="#fff"></path></clipPath></defs><g clip-path="url(#a)" transform="matrix(1.33333 0 0 -1.33333 0 682.667)"><path d="M0 0c0 13.808 11.192 25 24.999 25 13.808 0 25-11.192 25-25 0-13.807-11.192-24.999-25-24.999C11.192-24.999 0-13.807 0 0Z" style="stroke-width:20;stroke-linecap:round;stroke-linejoin:round;stroke-miterlimit:22.926;stroke-dasharray:none;stroke-opacity:1" transform="translate(9.999 477.002)" fill="none" stroke="#fff" stroke-width="20" stroke-linecap="round" stroke-linejoin="round" stroke-miterlimit="22.926" stroke-dasharray="none"></path><path d="M0 0c0 13.808 11.193 25 25 25 13.808 0 25-11.192 25-25 0-13.807-11.192-24.999-25-24.999C11.193-24.999 0-13.807 0 0Z" style="stroke-width:20;stroke-linecap:round;stroke-linejoin:round;stroke-miterlimit:22.926;stroke-dasharray:none;stroke-opacity:1" transform="translate(157.332 477.002)" fill="none" stroke="#fff" stroke-width="20" stroke-linecap="round" stroke-linejoin="round" stroke-miterlimit="22.926" stroke-dasharray="none"></path><path d="M0 0c0 13.808 11.192 25 25 25S50 13.808 50 0c0-13.807-11.192-24.999-25-24.999S0-13.807 0 0Z" style="stroke-width:20;stroke-linecap:round;stroke-linejoin:round;stroke-miterlimit:22.926;stroke-dasharray:none;stroke-opacity:1" transform="translate(304.666 477.002)" fill="none" stroke="#fff" stroke-width="20" stroke-linecap="round" stroke-linejoin="round" stroke-miterlimit="22.926" stroke-dasharray="none"></path><path d="M0 0c0 13.808 11.192 25 25 25S50 13.808 50 0c0-13.807-11.192-24.999-25-24.999S0-13.807 0 0Z" style="stroke-width:20;stroke-linecap:round;stroke-linejoin:round;stroke-miterlimit:22.926;stroke-dasharray:none;stroke-opacity:1" transform="translate(452 477.002)" fill="none" stroke="#fff" stroke-width="20" stroke-linecap="round" stroke-linejoin="round" stroke-miterlimit="22.926" stroke-dasharray="none"></path><path d="m0 0-62.59 36.136v85.718" style="stroke-width:20;stroke-linecap:round;stroke-linejoin:round;stroke-miterlimit:22.926;stroke-dasharray:none;stroke-opacity:1" transform="translate(97.588 325.15)" fill="none" stroke="#fff" stroke-width="20" stroke-linecap="round" stroke-linejoin="round" stroke-miterlimit="22.926" stroke-dasharray="none"></path><path d="m0 0 41.041 23.695v65.717" style="stroke-width:20;stroke-linecap:round;stroke-linejoin:round;stroke-miterlimit:22.926;stroke-dasharray:none;stroke-opacity:1" transform="translate(435.959 357.59)" fill="none" stroke="#fff" stroke-width="20" stroke-linecap="round" stroke-linejoin="round" stroke-miterlimit="22.926" stroke-dasharray="none"></path><path d="M0 0v75.717" style="stroke-width:20;stroke-linecap:round;stroke-linejoin:round;stroke-miterlimit:22.926;stroke-dasharray:none;stroke-opacity:1" transform="translate(329.666 371.286)" fill="none" stroke="#fff" stroke-width="20" stroke-linecap="round" stroke-linejoin="round" stroke-miterlimit="22.926" stroke-dasharray="none"></path><path d="M0 0v39.661" style="stroke-width:20;stroke-linecap:round;stroke-linejoin:round;stroke-miterlimit:22.926;stroke-dasharray:none;stroke-opacity:1" transform="translate(182.332 407.342)" fill="none" stroke="#fff" stroke-width="20" stroke-linecap="round" stroke-linejoin="round" stroke-miterlimit="22.926" stroke-dasharray="none"></path><path d="M0 0c0-13.808 11.192-25 24.999-25 13.808 0 25 11.192 25 25 0 13.807-11.192 25-25 25C11.192 25 0 13.807 0 0Z" style="stroke-width:20;stroke-linecap:round;stroke-M0 0v58.502c0 8.394 6.867 15.261 15.262 15.261h84.892c9.975 0 15.76-6.448 18.711-15.261l7.666-22.893h180.157c8.394 0 15.262-6.875 15.262-15.26v-224.005c0-8.395-6.87-15.262-15.262-15.262H-22.789c-8.392 0-15.261 6.867-15.261 15.262V-18.92c0 8.385 6.867 15.261 15.261 15.261h286.428c8.393 0 15.26-6.878 15.26-15.261v-184.736c0-8.395 6.871-15.262 15.262-15.262:round;stroke-miterlimit:22.926;stroke-dasharray:none;stroke-opacity:1" transform="translate(9.999 35.001)" fill="none" stroke="#fff" stroke-width="20" stroke-linecap="round" stroke-linejoin="round" stroke-miterlimit="22.926" stroke-dasharray="none"></path><path d="M0 0c0-13.808 11.193-25 25-25 13.808 0 25 11.192 25 25 0 13.807-11.192 25-25 25C11.193 25 0 13.807 0 0Z" style="stroke-width:20;stroke-linecap:round;stroke-linejoin:round;stroke-miterlimit:22.926;stroke-dasharray:none;stroke-opacity:1" transform="translate(157.332 35.001)" fill="none" stroke="#fff" stroke-width="20" stroke-linecap="round" stroke-linejoin="round" stroke-miterlimit="22.926" stroke-dasharray="none"></path><path d="M0 0c0-13.808 11.192-25 25-25S50-13.808 50 0c0 13.807-11.192 25-25 25S0 13.807 0 0Z" style="stroke-width:20;stroke-linecap:round;stroke-linejoin:round;stroke-miterlimit:22.926;stroke-dasharray:none;stroke-opacity:1" transform="translate(304.666 35.001)" fill="none" stroke="#fff" stroke-width="20" stroke-linecap="round" stroke-linejoin="round" stroke-miterlimit="22.926" stroke-dasharray="none"></path><path d="M0 0c0-13.808 11.192-25 25-25S50-13.808 50 0c0 13.807-11.192 25-25 25S0 13.807 0 0Z" style="stroke-width:20;stroke-linecap:round;stroke-linejoin:round;stroke-miterlimit:22.926;stroke-dasharray:none;stroke-opacity:1" transform="translate(452 35.001)" fill="none" stroke="#fff" stroke-width="20" stroke-linecap="round" stroke-linejoin="round" stroke-miterlimit="22.926" stroke-dasharray="none"></path><path d="m0 0-38.773-22.385v-85.717" style="stroke-width:20;stroke-linecap:round;stroke-linejoin:round;stroke-miterlimit:22.926;stroke-dasharray:none;stroke-opacity:1" transform="translate(73.772 173.102)" fill="none" stroke="#fff" stroke-width="20" stroke-linecap="round" stroke-linejoin="round" stroke-miterlimit="22.926" stroke-dasharray="none"></path><path d="m0 0 39.63-22.88v-65.717" style="stroke-width:20;stroke-linecap:round;stroke-linejoin:round;stroke-miterlimit:22.926;stroke-dasharray:none;stroke-opacity:1" transform="translate(437.37 153.598)" fill="none" stroke="#fff" stroke-width="20" stroke-linecap="round" stroke-linejoin="round" stroke-miterlimit="22.926" stroke-dasharray="none"></path><path d="M0 0v-41.187" style="stroke-width:20;stroke-linecap:round;stroke-linejoin:round;stroke-miterlimit:22.926;stroke-dasharray:none;stroke-opacity:1" transform="translate(329.666 106.188)" fill="none" stroke="#fff" stroke-width="20" stroke-linecap="round" stroke-linejoin="round" stroke-miterlimit="22.926" stroke-dasharray="none"></path><path d="M0 0v-41.562" style="stroke-width:20;stroke-linecap:round;stroke-linejoin:round;stroke-miterlimit:22.926;stroke-dasharray:none;stroke-opacity:1" transform="translate(182.332 106.563)" fill="none" stroke="#fff" stroke-width="20" stroke-linecap="round" stroke-linejoin="round" stroke-miterlimit="22.926" stroke-dasharray="none"></path><path d="M0 0v58.502c0 8.394 6.867 15.261 15.262 15.261h84.892c9.975 0 15.76-6.448 18.711-15.261l7.666-22.893h180.157c8.394 0 15.262-6.875 15.262-15.26v-224.005c0-8.395-6.87-15.262-15.262-15.262H-22.789c-8.392 0-15.261 6.867-15.261 15.262V-18.92c0 8.385 6.867 15.261 15.261 15.261h286.428c8.393 0 15.26-6.878 15.26-15.261v-184.736c0-8.395 6.871-15.262 15.262-15.262" style="stroke-width:20;stroke-linecap:round;stroke-linejoin:round;stroke-miterlimit:22.926;stroke-dasharray:none;stroke-opacity:1" transform="translate(114.05 328.58)" fill="none" stroke="#fff" stroke-width="20" stroke-linecap="round" stroke-linejoin="round" stroke-miterlimit="22.926" stroke-dasharray="none"></path><path d="M184.475 154.79h100v60h-100z" style="stroke-width:20;stroke-linecap:round;stroke-linejoin:round;stroke-miterlimit:22.926;stroke-dasharray:none;stroke-opacity:1" fill="none" stroke="#0ba348" stroke-width="20" stroke-linecap="round" stroke-linejoin="round" stroke-miterlimit="22.926" stroke-dasharray="none"></path><path d="M0 0v30.001c0 16.5 13.5 30 30 30s30-13.5 30-30" style="stroke-width:20;stroke-linecap:round;stroke-linejoin:round;stroke-miterlimit:22.926;stroke-dasharray:none;stroke-opacity:1" transform="translate(204.475 219.79)" fill="none" stroke="#0ba348" stroke-width="20" stroke-linecap="round" stroke-linejoin="round" stroke-miterlimit="22.926" stroke-dasharray="none"></path></g></g></svg>